<svg width="32" height="38" viewBox="0 0 32 38" fill="none" xmlns="http://www.w3.org/2000/svg">
<path d="M26.1877 20.1814C26.1452 15.4275 30.0583 13.1147 30.2372 13.007C28.0211 9.75757 24.5861 9.3136 23.3791 9.2782C20.4941 8.97287 17.6957 11.0143 16.2261 11.0143C14.7272 11.0143 12.4641 9.3077 10.0251 9.35785C6.88641 9.40652 3.95015 11.234 2.33975 14.0719C-0.983719 19.8584 1.49495 28.3617 4.67908 33.039C6.27188 35.3296 8.13308 37.8873 10.5692 37.7973C12.9525 37.6985 13.8428 36.2692 16.7189 36.2692C19.5687 36.2692 20.4047 37.7973 22.8892 37.7398C25.4471 37.6985 27.0575 35.4388 28.5945 33.1275C30.4352 30.502 31.1744 27.9163 31.2037 27.7835C31.1436 27.7629 26.2361 25.8793 26.1877 20.1814Z" fill="black"/>
<path d="M21.4944 6.20144C22.7763 4.58927 23.6533 2.39594 23.4099 0.170166C21.5545 0.252766 19.2343 1.46079 17.8981 3.03757C16.716 4.42702 15.66 6.70442 15.9328 8.84612C18.0169 9.00247 20.1568 7.78854 21.4944 6.20144Z" fill="black"/>
</svg>
