<svg width="33" height="32" viewBox="0 0 33 32" fill="none" xmlns="http://www.w3.org/2000/svg">
<path d="M27.1667 23.9H5.83333C5.15523 23.9 4.6 23.3448 4.6 22.6667C4.6 21.9886 5.15523 21.4333 5.83333 21.4333H27.1667C27.8448 21.4333 28.4 21.9886 28.4 22.6667C28.4 23.3448 27.8448 23.9 27.1667 23.9ZM27.1667 17.2333H5.83333C5.15523 17.2333 4.6 16.6781 4.6 16C4.6 15.3219 5.15523 14.7667 5.83333 14.7667H27.1667C27.8448 14.7667 28.4 15.3219 28.4 16C28.4 16.6781 27.8448 17.2333 27.1667 17.2333ZM5.83333 10.5667C5.15523 10.5667 4.6 10.0114 4.6 9.33333C4.6 8.65523 5.15523 8.1 5.83333 8.1H27.1667C27.8448 8.1 28.4 8.65523 28.4 9.33333C28.4 10.0114 27.8448 10.5667 27.1667 10.5667H5.83333Z" fill="#1B1B1B" stroke="#EEEEEE" stroke-width="0.2"/>
</svg>
