<svg width="25" height="24" viewBox="0 0 25 24" fill="none" xmlns="http://www.w3.org/2000/svg">
<path d="M8.41805 1.0879L8.41818 1.08788C8.37908 0.814189 8.25386 0.592421 8.03835 0.416093C7.82026 0.237657 7.57592 0.15 7.3 0.15H1.9C1.5371 0.15 1.24276 0.269369 1.00607 0.506066C0.769379 0.742753 0.65001 1.03708 0.65 1.39995L8.41805 1.0879ZM8.41805 1.0879L8.41919 1.09406M8.41805 1.0879L8.41919 1.09406M8.41919 1.09406L9.28527 5.75759C9.3272 6.05318 9.32078 6.31735 9.26947 6.55195C9.22006 6.77781 9.10767 6.9802 8.92727 7.1606L8.92672 7.16115M8.41919 1.09406L8.92672 7.16115M8.92672 7.16115L5.69339 10.4278L5.61248 10.5096M8.92672 7.16115L5.61248 10.5096M5.61248 10.5096L5.67043 10.6089M5.61248 10.5096L5.67043 10.6089M5.67043 10.6089C6.61083 12.221 7.79153 13.7313 9.2117 15.1398C10.6316 16.5481 12.1908 17.7666 13.889 18.795L13.9896 18.8559M5.67043 10.6089L13.9896 18.8559M13.9896 18.8559L14.0727 18.7727M13.9896 18.8559L14.0727 18.7727M14.0727 18.7727L17.2061 15.6394C17.3858 15.4596 17.6246 15.3205 17.9286 15.2259C18.2301 15.132 18.5226 15.1068 18.8076 15.1478L23.4019 16.08C23.4022 16.0801 23.4024 16.0801 23.4027 16.0802C23.6824 16.1403 23.9083 16.2738 24.086 16.4815C24.2626 16.6879 24.35 16.9252 24.35 17.2V22.6C24.35 22.9629 24.2306 23.2572 23.9939 23.4939C23.7572 23.7306 23.4629 23.85 23.1 23.85C20.2565 23.85 17.4839 23.2162 14.7811 21.9469M14.0727 18.7727L14.7811 21.9469M14.7811 21.9469C12.0748 20.676 9.67806 18.997 7.59004 16.9099M14.7811 21.9469L7.59004 16.9099M7.59004 16.9099C5.50206 14.8228 3.82317 12.4261 2.55313 9.71896M7.59004 16.9099L2.55313 9.71896M2.55313 9.71896C1.28468 7.01522 0.650889 4.24267 0.65 1.4L2.55313 9.71896ZM4.39583 8.05994L4.48377 8.26169L4.6394 8.10607L6.8394 5.90607L6.89491 5.85056L6.88094 5.77331L6.31427 2.63997L6.29197 2.51667H6.16667H3.2H3.0306L3.0511 2.68482C3.16282 3.60086 3.31922 4.50579 3.52033 5.39959C3.72249 6.29809 4.0144 7.18489 4.39583 8.05994ZM16.3606 19.8273L16.205 19.9829L16.4067 20.0708C17.281 20.4519 18.1726 20.7547 19.0814 20.979C19.9899 21.2032 20.9036 21.349 21.8224 21.4163L21.9833 21.4281V21.2667V18.3333V18.2106L21.8631 18.1863L18.7297 17.553L18.6508 17.537L18.5939 17.5939L16.3606 19.8273Z" fill="#1B1B1B" stroke="white" stroke-width="0.3"/>
</svg>
