<svg width="35" height="39" viewBox="0 0 35 39" fill="none" xmlns="http://www.w3.org/2000/svg">
<path d="M0.694011 3.68433C0.600622 4.03242 0.551537 4.39703 0.551537 4.77566V34.2275C0.551537 34.6055 0.600042 34.9713 0.694602 35.3182L16.7654 19.0772L0.694011 3.68433Z" fill="#5778C5"/>
<path d="M16.2307 18.6508L0.696198 35.3177C0.696782 35.3211 0.697949 35.324 0.698496 35.3275C1.17493 37.1374 2.81034 38.47 4.75122 38.47C5.5271 38.47 6.25554 38.258 6.88025 37.8857L6.92986 37.8564L24.4169 27.6567L16.2307 18.6508Z" fill="#EB3131"/>
<path d="M31.9481 15.8134L31.9332 15.8031L24.3835 11.3792L15.8778 19.0296L24.413 27.6558L31.9229 23.2759C33.2395 22.5575 34.1333 21.1545 34.1333 19.5366C34.1333 17.9303 33.2516 16.5342 31.9481 15.8134Z" fill="#F6B60B"/>
<path d="M16.3459 19.5016L24.3871 11.3761L6.91978 1.13942C6.28487 0.755041 5.54385 0.533203 4.75092 0.533203C2.81004 0.533203 1.17242 1.86823 0.695897 3.68017C0.695313 3.68194 0.695312 3.68316 0.695312 3.68471L16.3459 19.5016Z" fill="#3BAD49"/>
</svg>
