<svg width="16" height="16" viewBox="0 0 16 16" fill="none" xmlns="http://www.w3.org/2000/svg">
<path d="M14.8087 3.77062C14.2997 3.99575 13.76 4.1436 13.2074 4.20928C13.7894 3.86071 14.2249 3.31244 14.4327 2.66662C13.886 2.99195 13.2867 3.21995 12.6627 3.34328C12.2431 2.89434 11.6869 2.59659 11.0807 2.49634C10.4744 2.39609 9.85198 2.49895 9.3102 2.78892C8.76842 3.07889 8.33761 3.53974 8.08477 4.09981C7.83192 4.65989 7.77119 5.2878 7.91202 5.88595C6.80331 5.83048 5.71867 5.54244 4.72852 5.04053C3.73836 4.53862 2.86485 3.83406 2.16469 2.97262C1.91688 3.39825 1.78666 3.8821 1.78736 4.37462C1.78736 5.34128 2.28002 6.19528 3.02736 6.69528C2.5847 6.68132 2.15179 6.56178 1.76469 6.34662V6.38062C1.76467 7.02453 1.98738 7.64863 2.39504 8.14707C2.80271 8.6455 3.37023 8.98758 4.00136 9.11528C3.59045 9.22676 3.15955 9.24317 2.74136 9.16328C2.9193 9.71755 3.26616 10.2023 3.73335 10.5496C4.20054 10.8968 4.76466 11.0893 5.34669 11.1C4.76826 11.5543 4.10595 11.8901 3.39763 12.0882C2.68931 12.2863 1.94888 12.3429 1.21869 12.2546C2.49317 13.0742 3.97676 13.5093 5.49202 13.5079C10.6214 13.5079 13.4254 9.25928 13.4254 5.57462C13.4254 5.45462 13.4227 5.33328 13.4174 5.21395C13.963 4.81952 14.4339 4.33099 14.808 3.77128" fill="#FF7D01"/>
</svg>
