<svg width="18" height="18" viewBox="0 0 18 18" fill="none" xmlns="http://www.w3.org/2000/svg">
<path fill-rule="evenodd" clip-rule="evenodd" d="M11.7019 13.1607C10.3059 14.1891 8.57285 14.652 6.84998 14.4568C5.1271 14.2615 3.54163 13.4224 2.4112 12.1077C1.28076 10.7929 0.688863 9.09961 0.754075 7.36693C0.819286 5.63425 1.53679 3.99019 2.76285 2.76413C3.98891 1.53808 5.63296 0.820568 7.36565 0.755357C9.09833 0.690145 10.7917 1.28205 12.1064 2.41248C13.4212 3.54291 14.2602 5.12838 14.4555 6.85126C14.6507 8.57414 14.1878 10.3072 13.1594 11.7032L16.9475 15.4899C17.0488 15.5843 17.1301 15.6982 17.1865 15.8247C17.2428 15.9512 17.2731 16.0877 17.2756 16.2262C17.278 16.3647 17.2526 16.5022 17.2007 16.6306C17.1488 16.759 17.0716 16.8757 16.9737 16.9736C16.8758 17.0715 16.7591 17.1487 16.6307 17.2006C16.5023 17.2525 16.3648 17.2779 16.2263 17.2755C16.0878 17.273 15.9513 17.2427 15.8248 17.1864C15.6983 17.13 15.5844 17.0487 15.49 16.9474L11.7019 13.1607ZM12.4375 7.62492C12.4375 8.90127 11.9305 10.1254 11.028 11.0279C10.1254 11.9304 8.90137 12.4374 7.62501 12.4374C6.34866 12.4374 5.12458 11.9304 4.22206 11.0279C3.31954 10.1254 2.81251 8.90127 2.81251 7.62492C2.81251 6.34856 3.31954 5.12449 4.22206 4.22197C5.12458 3.31945 6.34866 2.81242 7.62501 2.81242C8.90137 2.81242 10.1254 3.31945 11.028 4.22197C11.9305 5.12449 12.4375 6.34856 12.4375 7.62492Z" fill="white"/>
</svg>
